#N canvas 1440 -390 1920 1052 12;
#X obj 213 661 rtcmix~ 2;
#X msg 590 494 bang;
#X msg 983 493 flush;
#X obj 526 4 cnv 15 500 130 empty empty Touch 20 12 0 14 -233017 -66577
0;
#X obj 537 39 tgl 25 0 empty zero empty 17 7 0 10 -262144 -1 -1 0 1
;
#X obj 567 39 tgl 25 0 empty zero empty 17 7 0 10 -262144 -1 -1 0 1
;
#X obj 597 39 tgl 25 0 empty zero empty 17 7 0 10 -262144 -1 -1 0 1
;
#X obj 627 39 tgl 25 0 empty zero empty 17 7 0 10 -262144 -1 -1 0 1
;
#X obj 657 39 tgl 25 0 empty zero empty 17 7 0 10 -262144 -1 -1 0 1
;
#X obj 687 39 tgl 25 0 empty zero empty 17 7 0 10 -262144 -1 -1 0 1
;
#X obj 717 39 tgl 25 0 empty zero empty 17 7 0 10 -262144 -1 -1 0 1
;
#X obj 747 39 tgl 25 0 empty zero empty 17 7 0 10 -262144 -1 -1 0 1
;
#X obj 777 39 tgl 25 0 empty zero empty 17 7 0 10 -262144 -1 -1 0 1
;
#X obj 807 39 tgl 25 0 empty zero empty 17 7 0 10 -262144 -1 -1 0 1
;
#X obj 837 39 tgl 25 0 empty zero empty 17 7 0 10 -262144 -1 -1 0 1
;
#X obj 867 39 tgl 25 0 empty zero empty 17 7 0 10 -262144 -1 -1 0 1
;
#X obj 897 39 tgl 25 0 empty zero empty 17 7 0 10 -262144 -1 -1 0 1
;
#X obj 927 39 tgl 25 0 empty zero empty 17 7 0 10 -262144 -1 -1 0 1
;
#X obj 957 39 tgl 25 0 empty zero empty 17 7 0 10 -262144 -1 -1 0 1
;
#X obj 987 39 tgl 25 0 empty zero empty 17 7 0 10 -262144 -1 -1 0 1
;
#X obj 22 1 cnv 15 140 130 empty empty Pressure(FSR) 20 12 0 14 -233017
-66577 0;
#X obj 80 38 vsl 25 64 0 4095 0 0 empty empty empty 0 -9 0 10 -262144
-1 -1 1100 1;
#X obj 1241 4 cnv 15 180 130 empty empty Accelerometer(norm) 20 12
0 14 -233017 -66577 0;
#X obj 1299 36 vsl 25 64 0 1 0 0 empty empty empty 0 -9 0 10 -262144
-1 -1 0 1;
#X obj 1269 36 vsl 25 64 0 1 0 0 empty empty empty 0 -9 0 10 -262144
-1 -1 0 1;
#X obj 1329 36 vsl 25 64 0 1 0 0 empty empty empty 0 -9 0 10 -262144
-1 -1 0 1;
#X obj 252 2 cnv 15 140 130 empty empty Shake 20 12 0 14 -233017 -66577
0;
#X obj 310 34 vsl 25 64 0 3 0 0 empty empty empty 0 -9 0 10 -262144
-1 -1 4100 1;
#X obj 280 34 vsl 25 64 0 3 0 0 empty empty empty 0 -9 0 10 -262144
-1 -1 1800 1;
#X obj 340 34 vsl 25 64 0 3 0 0 empty empty empty 0 -9 0 10 -262144
-1 -1 1100 1;
#X obj 56 109 s pressure;
#N canvas 0 25 450 300 shake 0;
#X obj 229 75 t b f;
#X obj 180 45 inlet;
#X obj 229 45 inlet;
#X obj 289 75 t b f;
#X obj 289 45 inlet;
#X obj 208 157 pack f f f;
#X obj 208 181 s shake;
#X connect 0 0 5 0;
#X connect 0 1 5 1;
#X connect 1 0 5 0;
#X connect 2 0 0 0;
#X connect 3 0 5 0;
#X connect 3 1 5 2;
#X connect 4 0 3 0;
#X connect 5 0 6 0;
#X restore 280 109 pd shake;
#N canvas 0 25 450 300 accl 0;
#X obj 229 75 t b f;
#X obj 180 45 inlet;
#X obj 229 45 inlet;
#X obj 289 75 t b f;
#X obj 289 45 inlet;
#X obj 208 157 pack f f f;
#X obj 208 181 s accl;
#X connect 0 0 5 0;
#X connect 0 1 5 1;
#X connect 1 0 5 0;
#X connect 2 0 0 0;
#X connect 3 0 5 0;
#X connect 3 1 5 2;
#X connect 4 0 3 0;
#X connect 5 0 6 0;
#X restore 1269 111 pd accl;
#N canvas 0 25 1041 242 touchall_ 0;
#X obj 181 45 inlet;
#X obj 224 45 inlet;
#X obj 112 138 expr $f1 + $f2 + $f3 + $f4 + $f5 + $f6 + $f7 + $f8 +
$f9 + $f10 + $f11 + $f12 + $f13 + $f14 + $f15 + $f16, f 107;
#X obj 112 162 / 16;
#X obj 112 186 s touchall;
#X obj 224 69 t b f;
#X obj 274 45 inlet;
#X obj 274 69 t b f;
#X obj 324 45 inlet;
#X obj 324 69 t b f;
#X obj 374 45 inlet;
#X obj 374 69 t b f;
#X obj 424 45 inlet;
#X obj 424 69 t b f;
#X obj 474 45 inlet;
#X obj 474 69 t b f;
#X obj 524 45 inlet;
#X obj 524 69 t b f;
#X obj 574 45 inlet;
#X obj 574 69 t b f;
#X obj 624 45 inlet;
#X obj 624 69 t b f;
#X obj 674 45 inlet;
#X obj 674 69 t b f;
#X obj 724 45 inlet;
#X obj 724 69 t b f;
#X obj 774 45 inlet;
#X obj 774 69 t b f;
#X obj 824 45 inlet;
#X obj 824 69 t b f;
#X obj 874 45 inlet;
#X obj 874 69 t b f;
#X obj 924 45 inlet;
#X obj 924 69 t b f;
#X connect 0 0 2 0;
#X connect 1 0 5 0;
#X connect 2 0 3 0;
#X connect 3 0 4 0;
#X connect 5 0 2 0;
#X connect 5 1 2 1;
#X connect 6 0 7 0;
#X connect 7 0 2 0;
#X connect 7 1 2 2;
#X connect 8 0 9 0;
#X connect 9 0 2 0;
#X connect 9 1 2 3;
#X connect 10 0 11 0;
#X connect 11 0 2 0;
#X connect 11 1 2 4;
#X connect 12 0 13 0;
#X connect 13 0 2 0;
#X connect 13 1 2 5;
#X connect 14 0 15 0;
#X connect 15 0 2 0;
#X connect 15 1 2 6;
#X connect 16 0 17 0;
#X connect 17 0 2 0;
#X connect 17 1 2 7;
#X connect 18 0 19 0;
#X connect 19 0 2 0;
#X connect 19 1 2 8;
#X connect 20 0 21 0;
#X connect 21 0 2 0;
#X connect 21 1 2 9;
#X connect 22 0 23 0;
#X connect 23 0 2 0;
#X connect 23 1 2 10;
#X connect 24 0 25 0;
#X connect 25 0 2 0;
#X connect 25 1 2 11;
#X connect 26 0 27 0;
#X connect 27 0 2 0;
#X connect 27 1 2 12;
#X connect 28 0 29 0;
#X connect 29 0 2 0;
#X connect 29 1 2 13;
#X connect 30 0 31 0;
#X connect 31 0 2 0;
#X connect 31 1 2 14;
#X connect 32 0 33 0;
#X connect 33 0 2 0;
#X connect 33 1 2 15;
#X restore 564 109 pd touchall_;
#X f 55;
#X obj 976 90 tgl 15 0 empty empty empty 17 7 0 10 -262144 -1 -1 0
1;
#X obj 976 110 s zero;
#X obj 563 139 r touchall;
#X obj 140 109 r pressure;
#X obj 345 109 r shake;
#X obj 1355 110 r accl;
#X obj 237 346 *~;
#X obj 142 146 osc~;
#X obj 251 147 unpack f f f;
#X obj 789 650 rtcmix~ 2;
#X obj 1220 673 rtcmix~ 2;
#X text 202 681 instrument 1;
#X text 783 686 instrument 2;
#X text 1216 700 instrument 3;
#X obj 358 258 *~;
#X obj 305 262 *~;
#X obj 784 329 +~;
#X obj 787 360 +~;
#X obj 789 386 *~ 0.25;
#X obj 786 472 vu 15 120 empty empty -1 -8 0 10 -66577 -1 1 0;
#X obj 734 429 dac~;
#X obj 257 269 *~;
#X obj 788 409 env~ 128;
#X obj 785 434 - 100;
#X connect 0 0 40 0;
#X connect 1 0 0 0;
#X connect 1 0 43 0;
#X connect 2 0 0 0;
#X connect 2 0 43 0;
#X connect 2 0 44 0;
#X connect 4 0 33 0;
#X connect 5 0 33 1;
#X connect 6 0 33 2;
#X connect 7 0 33 3;
#X connect 8 0 33 4;
#X connect 9 0 33 5;
#X connect 10 0 33 6;
#X connect 11 0 33 7;
#X connect 12 0 33 8;
#X connect 13 0 33 9;
#X connect 14 0 33 10;
#X connect 15 0 33 11;
#X connect 16 0 33 12;
#X connect 17 0 33 13;
#X connect 18 0 33 14;
#X connect 19 0 33 15;
#X connect 21 0 30 0;
#X connect 23 0 32 1;
#X connect 24 0 32 0;
#X connect 25 0 32 2;
#X connect 27 0 31 1;
#X connect 28 0 31 0;
#X connect 29 0 31 2;
#X connect 34 0 35 0;
#X connect 37 0 41 0;
#X connect 38 0 42 0;
#X connect 40 0 55 0;
#X connect 41 0 40 1;
#X connect 42 0 55 1;
#X connect 42 1 49 1;
#X connect 42 2 48 1;
#X connect 43 0 49 0;
#X connect 44 0 40 0;
#X connect 44 0 48 0;
#X connect 48 0 51 1;
#X connect 49 0 50 1;
#X connect 50 0 51 0;
#X connect 51 0 52 0;
#X connect 52 0 54 0;
#X connect 52 0 54 1;
#X connect 52 0 56 0;
#X connect 55 0 50 0;
#X connect 56 0 57 0;
#X connect 57 0 53 0;
