#N canvas 197 32 1354 765 12;
#X obj 872 78 tgl 25 0 empty zero empty 17 7 0 10 -262144 -1 -1 0 1
;
#X obj 902 78 tgl 25 0 empty zero empty 17 7 0 10 -262144 -1 -1 0 1
;
#X obj 891 129 tgl 15 0 empty empty empty 17 7 0 10 -262144 -1 -1 0
1;
#X obj 891 149 s zero;
#X obj 31 181 rtcmix~ 2;
#X obj 32 292 dac~;
#X msg 34 140 bang;
#X msg 78 138 flush;
#X symbolatom 439 481 20 0 0 2 IP toip ip;
#X floatatom 585 481 5 0 0 2 port toport port;
#N canvas 847 318 593 505 sending_OSC 0;
#X msg 164 327 disconnect;
#X obj 164 360 netsend -u -b;
#X obj 317 286 pack s f;
#X obj 347 260 i;
#X obj 320 237 t b f;
#X obj 58 279 list prepend send;
#X obj 58 303 list trim;
#X obj 317 334 list trim;
#X obj 317 311 list prepend connect;
#X obj 320 210 r port;
#X obj 284 236 r ip;
#X obj 84 49 inlet;
#X obj 76 410 print;
#X msg 76 385 netsend - disconnected;
#X obj 475 82 inlet;
#X obj 84 83 oscformat TStick_999 instrument touch all;
#X obj 144 49 inlet;
#X obj 194 49 inlet;
#X obj 244 50 inlet;
#X obj 144 113 oscformat TStick_999 raw fsr;
#X obj 194 143 oscformat TStick_999 instrument shakexyz;
#X obj 244 173 oscformat TStick_999 norm accl;
#X connect 0 0 1 0;
#X connect 0 0 13 0;
#X connect 2 0 8 0;
#X connect 3 0 2 1;
#X connect 4 0 2 0;
#X connect 4 1 3 0;
#X connect 5 0 6 0;
#X connect 6 0 1 0;
#X connect 7 0 1 0;
#X connect 8 0 7 0;
#X connect 9 0 4 0;
#X connect 10 0 2 0;
#X connect 11 0 15 0;
#X connect 13 0 12 0;
#X connect 14 0 0 0;
#X connect 15 0 5 0;
#X connect 16 0 19 0;
#X connect 17 0 20 0;
#X connect 18 0 21 0;
#X connect 19 0 5 0;
#X connect 20 0 5 0;
#X connect 21 0 5 0;
#X restore 331 481 pd sending_OSC;
#N canvas 0 25 621 594 default_OSC_settings 0;
#X msg 120 124 8000;
#X obj 120 148 s toport;
#X obj 184 148 s toip;
#X msg 184 124 symbol 192.168.0.100;
#X obj 120 94 t b b;
#X obj 120 69 loadbang;
#X connect 0 0 1 0;
#X connect 3 0 2 0;
#X connect 4 0 0 0;
#X connect 4 1 3 0;
#X connect 5 0 4 0;
#X restore 331 506 pd default_OSC_settings;
#X obj 418 464 bng 15 250 50 0 empty empty empty 17 7 0 10 -262144
-1 -1;
#X obj 441 43 cnv 15 500 130 empty empty Touch 20 12 0 14 -233017 -66577
0;
#X obj 452 78 tgl 25 0 empty zero empty 17 7 0 10 -262144 -1 -1 0 1
;
#X obj 482 78 tgl 25 0 empty zero empty 17 7 0 10 -262144 -1 -1 0 1
;
#X obj 512 78 tgl 25 0 empty zero empty 17 7 0 10 -262144 -1 -1 0 1
;
#X obj 542 78 tgl 25 0 empty zero empty 17 7 0 10 -262144 -1 -1 0 1
;
#X obj 572 78 tgl 25 0 empty zero empty 17 7 0 10 -262144 -1 -1 0 1
;
#X obj 602 78 tgl 25 0 empty zero empty 17 7 0 10 -262144 -1 -1 0 1
;
#X obj 632 78 tgl 25 0 empty zero empty 17 7 0 10 -262144 -1 -1 0 1
;
#X obj 662 78 tgl 25 0 empty zero empty 17 7 0 10 -262144 -1 -1 0 1
;
#X obj 692 78 tgl 25 0 empty zero empty 17 7 0 10 -262144 -1 -1 0 1
;
#X obj 722 78 tgl 25 0 empty zero empty 17 7 0 10 -262144 -1 -1 0 1
;
#X obj 752 78 tgl 25 0 empty zero empty 17 7 0 10 -262144 -1 -1 0 1
;
#X obj 782 78 tgl 25 0 empty zero empty 17 7 0 10 -262144 -1 -1 0 1
;
#X obj 812 78 tgl 25 0 empty zero empty 17 7 0 10 -262144 -1 -1 0 1
;
#X obj 842 78 tgl 25 0 empty zero empty 17 7 0 10 -262144 -1 -1 0 1
;
#X obj 872 78 tgl 25 0 empty zero empty 17 7 0 10 -262144 -1 -1 0 1
;
#X obj 902 78 tgl 25 0 empty zero empty 17 7 0 10 -262144 -1 -1 0 1
;
#X obj 291 43 cnv 15 140 130 empty empty Pressure(FSR) 20 12 0 14 -233017
-66577 0;
#X obj 349 80 vsl 25 64 0 4095 0 0 empty empty empty 0 -9 0 10 -262144
-1 -1 0 1;
#X obj 441 183 cnv 15 180 130 empty empty Accelerometer(norm) 20 12
0 14 -233017 -66577 0;
#X obj 499 215 vsl 25 64 0 1 0 0 empty empty empty 0 -9 0 10 -262144
-1 -1 3200 1;
#X obj 469 215 vsl 25 64 0 1 0 0 empty empty empty 0 -9 0 10 -262144
-1 -1 5000 1;
#X obj 529 215 vsl 25 64 0 1 0 0 empty empty empty 0 -9 0 10 -262144
-1 -1 3100 1;
#X obj 291 183 cnv 15 140 130 empty empty Shake 20 12 0 14 -233017
-66577 0;
#X obj 349 215 vsl 25 64 0 3 0 0 empty empty empty 0 -9 0 10 -262144
-1 -1 0 1;
#X obj 319 215 vsl 25 64 0 3 0 0 empty empty empty 0 -9 0 10 -262144
-1 -1 0 1;
#X obj 379 215 vsl 25 64 0 3 0 0 empty empty empty 0 -9 0 10 -262144
-1 -1 0 1;
#X obj 325 151 s pressure;
#N canvas 0 25 450 300 shake 0;
#X obj 229 75 t b f;
#X obj 180 45 inlet;
#X obj 229 45 inlet;
#X obj 289 75 t b f;
#X obj 289 45 inlet;
#X obj 208 157 pack f f f;
#X obj 208 181 s shake;
#X connect 0 0 5 0;
#X connect 0 1 5 1;
#X connect 1 0 5 0;
#X connect 2 0 0 0;
#X connect 3 0 5 0;
#X connect 3 1 5 2;
#X connect 4 0 3 0;
#X connect 5 0 6 0;
#X restore 319 290 pd shake;
#N canvas 0 25 450 300 accl 0;
#X obj 229 75 t b f;
#X obj 180 45 inlet;
#X obj 229 45 inlet;
#X obj 289 75 t b f;
#X obj 289 45 inlet;
#X obj 208 157 pack f f f;
#X obj 208 181 s accl;
#X connect 0 0 5 0;
#X connect 0 1 5 1;
#X connect 1 0 5 0;
#X connect 2 0 0 0;
#X connect 3 0 5 0;
#X connect 3 1 5 2;
#X connect 4 0 3 0;
#X connect 5 0 6 0;
#X restore 469 290 pd accl;
#N canvas 0 25 1041 242 touchall_ 0;
#X obj 181 45 inlet;
#X obj 224 45 inlet;
#X obj 112 138 expr $f1 + $f2 + $f3 + $f4 + $f5 + $f6 + $f7 + $f8 +
$f9 + $f10 + $f11 + $f12 + $f13 + $f14 + $f15 + $f16, f 107;
#X obj 112 162 / 16;
#X obj 112 186 s touchall;
#X obj 224 69 t b f;
#X obj 274 45 inlet;
#X obj 274 69 t b f;
#X obj 324 45 inlet;
#X obj 324 69 t b f;
#X obj 374 45 inlet;
#X obj 374 69 t b f;
#X obj 424 45 inlet;
#X obj 424 69 t b f;
#X obj 474 45 inlet;
#X obj 474 69 t b f;
#X obj 524 45 inlet;
#X obj 524 69 t b f;
#X obj 574 45 inlet;
#X obj 574 69 t b f;
#X obj 624 45 inlet;
#X obj 624 69 t b f;
#X obj 674 45 inlet;
#X obj 674 69 t b f;
#X obj 724 45 inlet;
#X obj 724 69 t b f;
#X obj 774 45 inlet;
#X obj 774 69 t b f;
#X obj 824 45 inlet;
#X obj 824 69 t b f;
#X obj 874 45 inlet;
#X obj 874 69 t b f;
#X obj 924 45 inlet;
#X obj 924 69 t b f;
#X connect 0 0 2 0;
#X connect 1 0 5 0;
#X connect 2 0 3 0;
#X connect 3 0 4 0;
#X connect 5 0 2 0;
#X connect 5 1 2 1;
#X connect 6 0 7 0;
#X connect 7 0 2 0;
#X connect 7 1 2 2;
#X connect 8 0 9 0;
#X connect 9 0 2 0;
#X connect 9 1 2 3;
#X connect 10 0 11 0;
#X connect 11 0 2 0;
#X connect 11 1 2 4;
#X connect 12 0 13 0;
#X connect 13 0 2 0;
#X connect 13 1 2 5;
#X connect 14 0 15 0;
#X connect 15 0 2 0;
#X connect 15 1 2 6;
#X connect 16 0 17 0;
#X connect 17 0 2 0;
#X connect 17 1 2 7;
#X connect 18 0 19 0;
#X connect 19 0 2 0;
#X connect 19 1 2 8;
#X connect 20 0 21 0;
#X connect 21 0 2 0;
#X connect 21 1 2 9;
#X connect 22 0 23 0;
#X connect 23 0 2 0;
#X connect 23 1 2 10;
#X connect 24 0 25 0;
#X connect 25 0 2 0;
#X connect 25 1 2 11;
#X connect 26 0 27 0;
#X connect 27 0 2 0;
#X connect 27 1 2 12;
#X connect 28 0 29 0;
#X connect 29 0 2 0;
#X connect 29 1 2 13;
#X connect 30 0 31 0;
#X connect 31 0 2 0;
#X connect 31 1 2 14;
#X connect 32 0 33 0;
#X connect 33 0 2 0;
#X connect 33 1 2 15;
#X restore 479 148 pd touchall_;
#X f 55;
#X obj 891 129 tgl 15 0 empty empty empty 17 7 0 10 -262144 -1 -1 0
1;
#X obj 891 149 s zero;
#X obj 337 365 r touchall;
#X obj 415 365 r pressure;
#X obj 493 366 r shake;
#X obj 550 365 r accl;
#X obj 35 258 *~;
#X obj 64 219 osc~;
#X connect 2 0 3 0;
#X connect 4 0 50 0;
#X connect 6 0 4 0;
#X connect 7 0 4 0;
#X connect 12 0 10 4;
#X connect 14 0 43 0;
#X connect 15 0 43 1;
#X connect 16 0 43 2;
#X connect 17 0 43 3;
#X connect 18 0 43 4;
#X connect 19 0 43 5;
#X connect 20 0 43 6;
#X connect 21 0 43 7;
#X connect 22 0 43 8;
#X connect 23 0 43 9;
#X connect 24 0 43 10;
#X connect 25 0 43 11;
#X connect 26 0 43 12;
#X connect 27 0 43 13;
#X connect 28 0 43 14;
#X connect 29 0 43 15;
#X connect 31 0 40 0;
#X connect 33 0 42 1;
#X connect 34 0 42 0;
#X connect 35 0 42 2;
#X connect 37 0 41 1;
#X connect 38 0 41 0;
#X connect 39 0 41 2;
#X connect 44 0 45 0;
#X connect 46 0 10 0;
#X connect 47 0 10 1;
#X connect 48 0 10 2;
#X connect 49 0 10 3;
#X connect 49 0 51 0;
#X connect 50 0 5 0;
#X connect 50 0 5 1;
#X connect 51 0 50 1;
