#N canvas 237 25 1348 792 12;
#X symbolatom 207 492 20 0 0 2 IP toip ip 0;
#X floatatom 353 492 5 0 0 2 port toport port 0;
#N canvas 915 480 593 505 sending_OSC 0;
#X msg 164 327 disconnect;
#X obj 164 360 netsend -u -b;
#X obj 317 286 pack s f;
#X obj 347 260 i;
#X obj 320 236 t b f;
#X obj 58 279 list prepend send;
#X obj 58 303 list trim;
#X obj 317 334 list trim;
#X obj 317 310 list prepend connect;
#X obj 320 210 r port;
#X obj 284 236 r ip;
#X obj 84 49 inlet;
#X obj 76 410 print;
#X msg 76 385 netsend - disconnected;
#X obj 475 82 inlet;
#X obj 84 83 oscformat TStick_999 instrument touch all;
#X obj 144 49 inlet;
#X obj 194 49 inlet;
#X obj 244 49 inlet;
#X obj 144 113 oscformat TStick_999 raw fsr;
#X obj 194 143 oscformat TStick_999 instrument shakexyz;
#X obj 244 173 oscformat TStick_999 norm accl;
#X connect 0 0 1 0;
#X connect 0 0 13 0;
#X connect 2 0 8 0;
#X connect 3 0 2 1;
#X connect 4 0 2 0;
#X connect 4 1 3 0;
#X connect 5 0 6 0;
#X connect 6 0 1 0;
#X connect 7 0 1 0;
#X connect 8 0 7 0;
#X connect 9 0 4 0;
#X connect 10 0 2 0;
#X connect 11 0 15 0;
#X connect 13 0 12 0;
#X connect 14 0 0 0;
#X connect 15 0 5 0;
#X connect 16 0 19 0;
#X connect 17 0 20 0;
#X connect 18 0 21 0;
#X connect 19 0 5 0;
#X connect 20 0 5 0;
#X connect 21 0 5 0;
#X restore 99 492 pd sending_OSC;
#N canvas 0 25 450 300 default_OSC_settings 0;
#X msg 120 124 8000;
#X obj 120 148 s toport;
#X obj 184 148 s toip;
#X msg 184 124 symbol 192.168.0.100;
#X obj 120 94 t b b;
#X obj 120 69 loadbang;
#X connect 0 0 1 0;
#X connect 3 0 2 0;
#X connect 4 0 0 0;
#X connect 4 1 3 0;
#X connect 5 0 4 0;
#X restore 99 517 pd default_OSC_settings;
#X obj 186 475 bng 15 250 50 0 empty empty empty 17 7 0 10 #fcfcfc
#000000 #000000;
#X text 134 792 OBS: Requires mapper-osx-pd;
#X text 134 811 https://github.com/libmapper/mapper-max-pd/releases
;
#N canvas 799 367 760 293 libmapper_pack 0;
#X obj 388 34 inlet;
#X obj 387 116 list trim;
#X obj 327 176 outlet;
#X obj 223 34 inlet;
#X obj 222 116 list trim;
#X obj 38 34 inlet;
#X obj 37 116 list trim;
#X obj 37 92 list prepend Touch_all;
#X obj 222 92 list prepend Squeeze;
#X obj 387 92 list prepend Shake_XYZ;
#X obj 558 34 inlet;
#X obj 557 116 list trim;
#X obj 557 92 list prepend Accl_norm_XYZ;
#X connect 0 0 9 0;
#X connect 1 0 2 0;
#X connect 3 0 8 0;
#X connect 4 0 2 0;
#X connect 5 0 7 0;
#X connect 6 0 2 0;
#X connect 7 0 6 0;
#X connect 8 0 4 0;
#X connect 9 0 1 0;
#X connect 10 0 12 0;
#X connect 11 0 2 0;
#X connect 12 0 11 0;
#X restore 310 415 pd libmapper_pack;
#X obj 310 439 s mapper;
#X obj 159 721 r mapper;
#X obj 209 54 cnv 15 500 130 empty empty Touch 20 12 0 14 #e0e0e0 #404040
0;
#X obj 220 89 tgl 25 0 empty zero empty 17 7 0 10 #fcfcfc #000000 #000000
0 1;
#X obj 250 89 tgl 25 0 empty zero empty 17 7 0 10 #fcfcfc #000000 #000000
0 1;
#X obj 280 89 tgl 25 0 empty zero empty 17 7 0 10 #fcfcfc #000000 #000000
0 1;
#X obj 310 89 tgl 25 0 empty zero empty 17 7 0 10 #fcfcfc #000000 #000000
0 1;
#X obj 340 89 tgl 25 0 empty zero empty 17 7 0 10 #fcfcfc #000000 #000000
0 1;
#X obj 370 89 tgl 25 0 empty zero empty 17 7 0 10 #fcfcfc #000000 #000000
0 1;
#X obj 400 89 tgl 25 0 empty zero empty 17 7 0 10 #fcfcfc #000000 #000000
0 1;
#X obj 430 89 tgl 25 0 empty zero empty 17 7 0 10 #fcfcfc #000000 #000000
0 1;
#X obj 460 89 tgl 25 0 empty zero empty 17 7 0 10 #fcfcfc #000000 #000000
0 1;
#X obj 490 89 tgl 25 0 empty zero empty 17 7 0 10 #fcfcfc #000000 #000000
0 1;
#X obj 520 89 tgl 25 0 empty zero empty 17 7 0 10 #fcfcfc #000000 #000000
0 1;
#X obj 550 89 tgl 25 0 empty zero empty 17 7 0 10 #fcfcfc #000000 #000000
0 1;
#X obj 580 89 tgl 25 0 empty zero empty 17 7 0 10 #fcfcfc #000000 #000000
0 1;
#X obj 610 89 tgl 25 0 empty zero empty 17 7 0 10 #fcfcfc #000000 #000000
0 1;
#X obj 640 89 tgl 25 0 empty zero empty 17 7 0 10 #fcfcfc #000000 #000000
0 1;
#X obj 670 89 tgl 25 0 empty zero empty 17 7 0 10 #fcfcfc #000000 #000000
0 1;
#X obj 59 54 cnv 15 140 130 empty empty Pressure(FSR) 20 12 0 14 #e0e0e0
#404040 0;
#X obj 117 91 vsl 25 64 0 4095 0 0 empty empty empty 0 -9 0 10 #fcfcfc
#000000 #000000 0 1;
#X obj 209 194 cnv 15 180 130 empty empty Accelerometer(norm) 20 12
0 14 #e0e0e0 #404040 0;
#X obj 267 226 vsl 25 64 0 1 0 0 empty empty empty 0 -9 0 10 #fcfcfc
#000000 #000000 0 1;
#X obj 237 226 vsl 25 64 0 1 0 0 empty empty empty 0 -9 0 10 #fcfcfc
#000000 #000000 0 1;
#X obj 297 226 vsl 25 64 0 1 0 0 empty empty empty 0 -9 0 10 #fcfcfc
#000000 #000000 0 1;
#X obj 59 194 cnv 15 140 130 empty empty Shake 20 12 0 14 #e0e0e0 #404040
0;
#X obj 117 226 vsl 25 64 0 3 0 0 empty empty empty 0 -9 0 10 #fcfcfc
#000000 #000000 0 1;
#X obj 87 226 vsl 25 64 0 3 0 0 empty empty empty 0 -9 0 10 #fcfcfc
#000000 #000000 0 1;
#X obj 147 226 vsl 25 64 0 3 0 0 empty empty empty 0 -9 0 10 #fcfcfc
#000000 #000000 0 1;
#X obj 93 162 s pressure;
#N canvas 0 25 450 300 shake 0;
#X obj 229 75 t b f;
#X obj 180 45 inlet;
#X obj 229 45 inlet;
#X obj 289 75 t b f;
#X obj 289 45 inlet;
#X obj 208 157 pack f f f;
#X obj 208 181 s shake;
#X connect 0 0 5 0;
#X connect 0 1 5 1;
#X connect 1 0 5 0;
#X connect 2 0 0 0;
#X connect 3 0 5 0;
#X connect 3 1 5 2;
#X connect 4 0 3 0;
#X connect 5 0 6 0;
#X restore 87 301 pd shake;
#N canvas 0 25 450 300 accl 0;
#X obj 229 75 t b f;
#X obj 180 45 inlet;
#X obj 229 45 inlet;
#X obj 289 75 t b f;
#X obj 289 45 inlet;
#X obj 208 157 pack f f f;
#X obj 208 181 s accl;
#X connect 0 0 5 0;
#X connect 0 1 5 1;
#X connect 1 0 5 0;
#X connect 2 0 0 0;
#X connect 3 0 5 0;
#X connect 3 1 5 2;
#X connect 4 0 3 0;
#X connect 5 0 6 0;
#X restore 237 301 pd accl;
#N canvas 0 25 1041 242 touchall_ 0;
#X obj 181 45 inlet;
#X obj 224 45 inlet;
#X obj 112 138 expr $f1 + $f2 + $f3 + $f4 + $f5 + $f6 + $f7 + $f8 +
$f9 + $f10 + $f11 + $f12 + $f13 + $f14 + $f15 + $f16, f 107;
#X obj 112 162 / 16;
#X obj 112 186 s touchall;
#X obj 224 69 t b f;
#X obj 274 45 inlet;
#X obj 274 69 t b f;
#X obj 324 45 inlet;
#X obj 324 69 t b f;
#X obj 374 45 inlet;
#X obj 374 69 t b f;
#X obj 424 45 inlet;
#X obj 424 69 t b f;
#X obj 474 45 inlet;
#X obj 474 69 t b f;
#X obj 524 45 inlet;
#X obj 524 69 t b f;
#X obj 574 45 inlet;
#X obj 574 69 t b f;
#X obj 624 45 inlet;
#X obj 624 69 t b f;
#X obj 674 45 inlet;
#X obj 674 69 t b f;
#X obj 724 45 inlet;
#X obj 724 69 t b f;
#X obj 774 45 inlet;
#X obj 774 69 t b f;
#X obj 824 45 inlet;
#X obj 824 69 t b f;
#X obj 874 45 inlet;
#X obj 874 69 t b f;
#X obj 924 45 inlet;
#X obj 924 69 t b f;
#X connect 0 0 2 0;
#X connect 1 0 5 0;
#X connect 2 0 3 0;
#X connect 3 0 4 0;
#X connect 5 0 2 0;
#X connect 5 1 2 1;
#X connect 6 0 7 0;
#X connect 7 0 2 0;
#X connect 7 1 2 2;
#X connect 8 0 9 0;
#X connect 9 0 2 0;
#X connect 9 1 2 3;
#X connect 10 0 11 0;
#X connect 11 0 2 0;
#X connect 11 1 2 4;
#X connect 12 0 13 0;
#X connect 13 0 2 0;
#X connect 13 1 2 5;
#X connect 14 0 15 0;
#X connect 15 0 2 0;
#X connect 15 1 2 6;
#X connect 16 0 17 0;
#X connect 17 0 2 0;
#X connect 17 1 2 7;
#X connect 18 0 19 0;
#X connect 19 0 2 0;
#X connect 19 1 2 8;
#X connect 20 0 21 0;
#X connect 21 0 2 0;
#X connect 21 1 2 9;
#X connect 22 0 23 0;
#X connect 23 0 2 0;
#X connect 23 1 2 10;
#X connect 24 0 25 0;
#X connect 25 0 2 0;
#X connect 25 1 2 11;
#X connect 26 0 27 0;
#X connect 27 0 2 0;
#X connect 27 1 2 12;
#X connect 28 0 29 0;
#X connect 29 0 2 0;
#X connect 29 1 2 13;
#X connect 30 0 31 0;
#X connect 31 0 2 0;
#X connect 31 1 2 14;
#X connect 32 0 33 0;
#X connect 33 0 2 0;
#X connect 33 1 2 15;
#X restore 247 159 pd touchall_;
#X f 55;
#X obj 659 140 tgl 15 0 empty empty empty 17 7 0 10 #fcfcfc #000000
#000000 0 1;
#X obj 659 160 s zero;
#X obj 105 376 r touchall;
#X obj 183 376 r pressure;
#X obj 261 376 r shake;
#X obj 318 376 r accl;
#X obj 132 570 loadbang;
#X msg 102 638 add output Squeeze @type i @length 1 @min 0 @max 4095
;
#X msg 139 689 add output Accl_norm_XYZ @type f @length 3 @min 0 @max
1;
#X msg 126 663 add output Shake_XYZ @type f @length 3 @min 0 @max 5
;
#X obj 144 760 mapper @alias T-Stick_emulator;
#X msg 73 611 add output Touch_all @type f @length 1 @min 0 @max 1
;
#X connect 4 0 2 4;
#X connect 7 0 8 0;
#X connect 9 0 51 0;
#X connect 11 0 40 0;
#X connect 12 0 40 1;
#X connect 13 0 40 2;
#X connect 14 0 40 3;
#X connect 15 0 40 4;
#X connect 16 0 40 5;
#X connect 17 0 40 6;
#X connect 18 0 40 7;
#X connect 19 0 40 8;
#X connect 20 0 40 9;
#X connect 21 0 40 10;
#X connect 22 0 40 11;
#X connect 23 0 40 12;
#X connect 24 0 40 13;
#X connect 25 0 40 14;
#X connect 26 0 40 15;
#X connect 28 0 37 0;
#X connect 30 0 39 1;
#X connect 31 0 39 0;
#X connect 32 0 39 2;
#X connect 34 0 38 1;
#X connect 35 0 38 0;
#X connect 36 0 38 2;
#X connect 41 0 42 0;
#X connect 43 0 2 0;
#X connect 43 0 7 0;
#X connect 44 0 2 1;
#X connect 44 0 7 1;
#X connect 45 0 7 2;
#X connect 45 0 2 2;
#X connect 46 0 7 3;
#X connect 46 0 2 3;
#X connect 47 0 52 0;
#X connect 47 0 48 0;
#X connect 47 0 50 0;
#X connect 47 0 49 0;
#X connect 48 0 51 0;
#X connect 49 0 51 0;
#X connect 50 0 51 0;
#X connect 52 0 51 0;
